<svg xmlns="http://www.w3.org/2000/svg" viewBox="0 0 800 600" width="800" height="600">
  <defs>
    <radialGradient id="bg" cx="50%" cy="45%" r="70%"><stop offset="0%" stop-color="#1c1814"/><stop offset="60%" stop-color="#0f0c09"/><stop offset="100%" stop-color="#050403"/></radialGradient>
    <linearGradient id="gold" x1="0" y1="0" x2="1" y2="1"><stop offset="0%" stop-color="#e3c88a"/><stop offset="55%" stop-color="#c9a961"/><stop offset="100%" stop-color="#8a6f33"/></linearGradient>
    <linearGradient id="walnut" x1="0" y1="0" x2="0" y2="1"><stop offset="0%" stop-color="#5a3820"/><stop offset="50%" stop-color="#3a2414"/><stop offset="100%" stop-color="#1e120a"/></linearGradient>
    <linearGradient id="amber" x1="0" y1="0" x2="0" y2="1"><stop offset="0%" stop-color="#3a2c1a"/><stop offset="100%" stop-color="#120a04"/></linearGradient>
  </defs>
  <rect width="800" height="600" fill="url(#bg)"/>
  <ellipse cx="400" cy="505" rx="240" ry="14" fill="#000" opacity="0.55"/>
  <!-- walnut presentation box -->
  <rect x="210" y="370" width="380" height="130" rx="8" fill="url(#walnut)" stroke="#201008" stroke-width="2"/>
  <rect x="210" y="370" width="380" height="14" rx="6" fill="#c9a961" opacity="0.25"/>
  <!-- bottle, left -->
  <rect x="278" y="250" width="58" height="135" rx="7" fill="url(#amber)" stroke="#3a2c1a" stroke-width="2"/>
  <rect x="294" y="218" width="26" height="40" fill="url(#amber)" stroke="#3a2c1a" stroke-width="2"/>
  <rect x="289" y="200" width="36" height="22" rx="3" fill="url(#gold)"/>
  <!-- balm tin, center -->
  <rect x="358" y="312" width="120" height="72" rx="8" fill="#1a1612" stroke="#3a332a" stroke-width="2"/>
  <rect x="352" y="284" width="132" height="34" rx="6" fill="url(#gold)"/>
  <!-- comb, right -->
  <rect x="500" y="232" width="52" height="152" rx="6" fill="url(#walnut)" stroke="#201008" stroke-width="1.5"/>
  <g stroke="#1e120a" stroke-width="2">
    <line x1="508" y1="300" x2="508" y2="378"/>
    <line x1="518" y1="300" x2="518" y2="378"/>
    <line x1="528" y1="300" x2="528" y2="378"/>
    <line x1="538" y1="300" x2="538" y2="378"/>
    <line x1="544" y1="300" x2="544" y2="378"/>
  </g>
</svg>
