<svg xmlns="http://www.w3.org/2000/svg" viewBox="0 0 800 600" width="800" height="600">
  <defs>
    <radialGradient id="bg" cx="50%" cy="40%" r="75%">
      <stop offset="0%" stop-color="#1c1814"/>
      <stop offset="60%" stop-color="#0f0c09"/>
      <stop offset="100%" stop-color="#050403"/>
    </radialGradient>
    <linearGradient id="gold" x1="0" y1="0" x2="1" y2="1">
      <stop offset="0%" stop-color="#e3c88a"/>
      <stop offset="55%" stop-color="#c9a961"/>
      <stop offset="100%" stop-color="#8a6f33"/>
    </linearGradient>
  </defs>
  <rect width="800" height="600" fill="url(#bg)"/>
  <text x="400" y="80" text-anchor="middle" font-family="'Playfair Display', Georgia, serif" font-size="18" letter-spacing="6" fill="#c9a961" opacity="0.7">BEFORE</text>
  <ellipse cx="400" cy="560" rx="170" ry="14" fill="#000" opacity="0.55"/>
  <!-- Shoulders -->
  <path d="M 240,560 Q 240,470 320,460 L 480,460 Q 560,470 560,560 Z" fill="url(#gold)" opacity="0.85"/>
  <!-- Neck -->
  <rect x="370" y="410" width="60" height="60" fill="url(#gold)" opacity="0.85"/>
  <!-- Head -->
  <ellipse cx="400" cy="290" rx="105" ry="135" fill="url(#gold)"/>
  <!-- Longer messy hair -->
  <path d="M 285,265 Q 275,170 365,150 Q 400,135 435,150 Q 525,170 515,265 Q 520,320 500,350 L 295,350 Q 280,320 285,265 Z" fill="url(#gold)"/>
  <!-- Hair texture -->
  <path d="M 320,195 Q 350,225 340,275" stroke="#0a0806" stroke-width="2" fill="none" opacity="0.35"/>
  <path d="M 380,175 Q 395,215 385,270" stroke="#0a0806" stroke-width="2" fill="none" opacity="0.35"/>
  <path d="M 440,175 Q 455,215 450,270" stroke="#0a0806" stroke-width="2" fill="none" opacity="0.35"/>
  <path d="M 485,210 Q 500,250 490,290" stroke="#0a0806" stroke-width="2" fill="none" opacity="0.35"/>
  <!-- Scruffy uneven beard -->
  <path d="M 305,330 Q 295,365 320,410 Q 345,445 380,455 L 420,455 Q 455,445 480,410 Q 505,365 495,330 Q 480,355 460,360 L 340,360 Q 320,355 305,330 Z" fill="url(#gold)"/>
  <path d="M 340,420 Q 335,450 345,470" stroke="#0a0806" stroke-width="2" fill="none" opacity="0.3"/>
  <path d="M 385,440 Q 385,470 395,490" stroke="#0a0806" stroke-width="2" fill="none" opacity="0.3"/>
  <path d="M 420,440 Q 420,470 410,490" stroke="#0a0806" stroke-width="2" fill="none" opacity="0.3"/>
  <path d="M 460,420 Q 470,450 455,470" stroke="#0a0806" stroke-width="2" fill="none" opacity="0.3"/>
</svg>
